<svg aria-hidden="true" style="position: absolute; width: 0; height: 0; overflow: hidden;" version="1.1" xmlns="http://www.w3.org/2000/svg" xmlns:xlink="http://www.w3.org/1999/xlink">
<defs>
<symbol id="icon-logo" viewBox="0 0 37 32">
<path d="M16.48 0.062l20.333 20.741v11.135h-9.489v-7.132l-14.768-15.065h-3.068v22.197h-9.489v-31.876h16.48zM27.324 11.124v-11.062h9.488v11.062h-9.489z"></path>
</symbol>
<symbol id="icon-play" viewBox="0 0 26 32">
<path d="M25.547 14.867l-23.55-14.668c-0.198-0.125-0.426-0.193-0.658-0.198s-0.463 0.053-0.666 0.168c-0.203 0.115-0.373 0.284-0.491 0.489s-0.18 0.437-0.181 0.675v29.336c0 0.237 0.063 0.47 0.181 0.675s0.288 0.373 0.491 0.489c0.203 0.116 0.434 0.174 0.666 0.168s0.46-0.074 0.658-0.198l23.55-14.668c0.193-0.116 0.354-0.282 0.465-0.481s0.17-0.424 0.17-0.652-0.059-0.454-0.17-0.652c-0.111-0.199-0.271-0.364-0.465-0.481z"></path>
</symbol>
</defs>
</svg>
